<svg width="25" height="24" viewBox="0 0 25 24" fill="none" xmlns="http://www.w3.org/2000/svg">
<path fill-rule="evenodd" clip-rule="evenodd" d="M2.5 12C2.5 17.5228 6.97715 22 12.5 22C18.0228 22 22.5 17.5228 22.5 12C22.5 6.47715 18.0228 2 12.5 2C6.97715 2 2.5 6.47715 2.5 12ZM20.6818 12C20.6818 16.5187 17.0187 20.1818 12.5 20.1818C7.98131 20.1818 4.31818 16.5187 4.31818 12C4.31818 7.48131 7.98131 3.81818 12.5 3.81818C17.0187 3.81818 20.6818 7.48131 20.6818 12Z" fill="#667AC5"/>
<path fill-rule="evenodd" clip-rule="evenodd" d="M11 13.2322L16.2929 7.93934L17.7071 9.35355L11 16.0607L7.29289 12.3536L8.70711 10.9393L11 13.2322Z" fill="#667AC5"/>
</svg>
