<svg width="20" height="21" viewBox="0 0 20 21" fill="none" xmlns="http://www.w3.org/2000/svg">
<path d="M1.66602 18.7273L4.99935 15.3939H13.3327C14.2493 15.3939 14.9993 14.6439 14.9993 13.7273V12.0606L18.3327 15.3939V3.72725C18.3327 2.81059 17.5827 2.06059 16.666 2.06059H6.66602C5.74935 2.06059 4.99935 2.81059 4.99935 3.72725V5.39392H3.33268C2.41602 5.39392 1.66602 6.14392 1.66602 7.06059V18.7273ZM6.66602 3.72725H16.666V11.3702L15.6898 10.3939H6.66602V3.72725ZM3.33268 7.06059H4.99935V10.3939C4.99935 11.3106 5.74935 12.0606 6.66602 12.0606H13.3327V13.7273H4.30893L3.33268 14.7035V7.06059Z" fill="#667AC5"/>
</svg>
