<svg width="74" height="74" viewBox="0 0 74 74" fill="none" xmlns="http://www.w3.org/2000/svg">
<rect width="74" height="74" fill="white"/>
<g filter="url(#filter0_d_0_1)">
<path fill-rule="evenodd" clip-rule="evenodd" d="M51 56L44.1554 59.4223C39.651 61.6745 34.349 61.6745 29.8446 59.4223L5 47V54.0557C5 57.0859 6.71202 59.856 9.42229 61.2111L29.8446 71.4223C34.349 73.6745 39.651 73.6745 44.1554 71.4223L47 70L48.7889 69.1056C50.144 68.428 51 67.043 51 65.5279V63.5V56ZM59 52V59.5V60.7639C59 62.2501 60.5633 63.2169 61.8927 62.5536C61.8933 62.5534 61.8939 62.5531 61.8944 62.5528L63 62L64.5777 61.2111C67.288 59.856 69 57.0859 69 54.0557V47L59 52Z" fill="#667AC5"/>
<path fill-rule="evenodd" clip-rule="evenodd" d="M5 47V35L29.8446 47.4223C34.349 49.6745 39.651 49.6745 44.1554 47.4223L69 35V47L59 52V49.2361C59 47.7493 57.4354 46.7823 56.1056 47.4472L53.2111 48.8944C51.856 49.572 51 50.957 51 52.4721V56L44.1554 59.4223C39.651 61.6745 34.349 61.6745 29.8446 59.4223L5 47Z" fill="#7B90DA"/>
<path d="M34.6 0.8C36.0222 -0.266667 37.9778 -0.266667 39.4 0.8L67.4 21.8C68.4072 22.5554 69 23.741 69 25V35L44.1554 47.4223C39.651 49.6745 34.349 49.6745 29.8446 47.4223L5 35V25C5 23.741 5.59278 22.5554 6.6 21.8L34.6 0.8Z" fill="#97A8E8"/>
<path fill-rule="evenodd" clip-rule="evenodd" d="M6.44721 23.7236C5.78231 23.3911 5 23.8746 5 24.618V54.0556C5 57.0857 6.71202 59.8558 9.42229 61.211L29.8446 71.4222C33.4282 73.214 37.5166 73.5803 41.3066 72.521C39.0906 72.6942 37 70.9582 37 68.5278V64.7663V63.9999V41.4721C37 39.957 36.144 38.572 34.7889 37.8944L6.44721 23.7236Z" fill="#001662" fill-opacity="0.15"/>
<path fill-rule="evenodd" clip-rule="evenodd" d="M39.4001 0.800288C37.9778 -0.266656 36.0221 -0.266774 34.5997 0.8L25 7.99977L25.0001 7.99986L33.8 1.3999C35.1185 0.411043 37 1.35181 37 2.9999V18.9999V35.7638C37 35.7683 37 35.7727 37 35.7772V37.3801C37 38.1239 37.7831 38.6074 38.4481 38.2741L67.5191 23.7028C68.1833 23.3699 68.2654 22.4547 67.6711 22.0089L39.4001 0.800288Z" fill="#B1BFF7"/>
<path d="M18 9L24 12V19.5L27 25L25 27H24.2361C24.0808 27 23.9277 26.9639 23.7889 26.8944L19.1056 24.5528C18.428 24.214 18 23.5215 18 22.7639V9Z" fill="#7B90DA"/>
<path d="M30 9L24 12V26C24 26.961 25.2234 27.3688 25.8 26.6L29.6 21.5333C29.8596 21.1871 30 20.7661 30 20.3333V9Z" fill="#B1BFF6"/>
<path d="M22.9923 4.58785C23.615 4.22459 24.385 4.22459 25.0077 4.58785L29.5039 7.21059C29.8111 7.3898 30 7.7187 30 8.07437V9.38197C30 9.76074 29.786 10.107 29.4472 10.2764L24.8944 12.5528C24.3314 12.8343 23.6686 12.8343 23.1056 12.5528L18.5528 10.2764C18.214 10.107 18 9.76074 18 9.38197V8.07437C18 7.7187 18.1889 7.3898 18.4961 7.21059L22.9923 4.58785Z" fill="#667AC5"/>
</g>
<defs>
<filter id="filter0_d_0_1" x="-7" y="-12" width="88" height="97.1116" filterUnits="userSpaceOnUse" color-interpolation-filters="sRGB">
<feFlood flood-opacity="0" result="BackgroundImageFix"/>
<feColorMatrix in="SourceAlpha" type="matrix" values="0 0 0 0 0 0 0 0 0 0 0 0 0 0 0 0 0 0 127 0" result="hardAlpha"/>
<feOffset/>
<feGaussianBlur stdDeviation="6"/>
<feComposite in2="hardAlpha" operator="out"/>
<feColorMatrix type="matrix" values="0 0 0 0 0.176556 0 0 0 0 0.171146 0 0 0 0 0.441667 0 0 0 0.1 0"/>
<feBlend mode="normal" in2="BackgroundImageFix" result="effect1_dropShadow_0_1"/>
<feBlend mode="normal" in="SourceGraphic" in2="effect1_dropShadow_0_1" result="shape"/>
</filter>
</defs>
</svg>
