<svg width="16" height="16" viewBox="0 0 16 16" fill="none" xmlns="http://www.w3.org/2000/svg">
<path fill-rule="evenodd" clip-rule="evenodd" d="M7.33477 5.98761C7.33404 5.99609 7.33398 6.00027 7.33398 6.00027C7.33398 6.36846 7.03551 6.66683 6.66732 6.66683C6.29913 6.66683 6.00065 6.36835 6.00065 6.00016C6.00065 5.71076 6.10162 5.24353 6.38416 4.83148C6.69108 4.3839 7.21842 4.00016 8.00065 4.00016C8.75126 4.00016 9.28474 4.32785 9.60834 4.77729C9.90746 5.19274 10.0007 5.67126 10.0007 6.00016C10.0007 6.87288 9.67758 7.46716 9.18923 8.08162C9.03562 8.2749 8.88358 8.50207 8.7666 8.68762C8.70901 8.77897 8.66175 8.85729 8.62916 8.9123C8.6129 8.93976 8.60037 8.96127 8.59213 8.97553L8.58307 8.99128L8.58109 8.99475M8.58109 8.99475C8.39977 9.31515 7.99281 9.42836 7.67237 9.24707C7.35192 9.06577 7.23911 8.65901 7.42041 8.33855L8.00017 8.66656C7.42041 8.33855 7.42041 8.33855 7.42041 8.33855L7.42204 8.33567L7.42551 8.3296L7.43773 8.30834C7.44817 8.29029 7.4631 8.26465 7.48198 8.23279C7.51967 8.16915 7.57342 8.08009 7.63871 7.97652C7.76751 7.77224 7.94881 7.49941 8.14541 7.25204C8.52938 6.7689 8.66732 6.46078 8.66732 6.00016C8.66732 5.88462 8.62717 5.69647 8.52629 5.55637C8.44989 5.45025 8.3167 5.3335 8.00065 5.3335C7.71621 5.3335 7.57689 5.44976 7.4838 5.58551C7.4301 5.66384 7.39049 5.75405 7.36485 5.8406C7.35228 5.88301 7.34414 5.92096 7.33933 5.95137C7.33695 5.96643 7.33554 5.97861 7.33477 5.98761" fill="#667AC5"/>
<path d="M8.66732 10.6668C8.66732 11.035 8.36884 11.3335 8.00065 11.3335C7.63246 11.3335 7.33398 11.035 7.33398 10.6668C7.33398 10.2986 7.63246 10.0002 8.00065 10.0002C8.36884 10.0002 8.66732 10.2986 8.66732 10.6668Z" fill="#667AC5"/>
<path fill-rule="evenodd" clip-rule="evenodd" d="M8.00065 2.66683C5.05513 2.66683 2.66732 5.05464 2.66732 8.00016C2.66732 10.9457 5.05513 13.3335 8.00065 13.3335C10.9462 13.3335 13.334 10.9457 13.334 8.00016C13.334 5.05464 10.9462 2.66683 8.00065 2.66683ZM1.33398 8.00016C1.33398 4.31826 4.31875 1.3335 8.00065 1.3335C11.6825 1.3335 14.6673 4.31826 14.6673 8.00016C14.6673 11.6821 11.6825 14.6668 8.00065 14.6668C4.31875 14.6668 1.33398 11.6821 1.33398 8.00016Z" fill="#667AC5"/>
</svg>
