<svg width="20" height="21" viewBox="0 0 20 21" fill="none" xmlns="http://www.w3.org/2000/svg">
<path fill-rule="evenodd" clip-rule="evenodd" d="M9.3436 4.00583C9.2175 4.18096 9.16732 4.41615 9.16732 4.56058V5.39391H7.50065V4.56058C7.50065 4.14945 7.61714 3.5513 7.99104 3.03199C8.39554 2.47019 9.06238 2.06058 10.0007 2.06058C10.9389 2.06058 11.6058 2.47019 12.0103 3.03199C12.3842 3.5513 12.5007 4.14945 12.5007 4.56058V5.39391H10.834V4.56058C10.834 4.41615 10.7838 4.18096 10.6577 4.00583C10.5622 3.87319 10.3957 3.72724 10.0007 3.72724C9.60558 3.72724 9.4391 3.87319 9.3436 4.00583Z" fill="#667AC5"/>
<path fill-rule="evenodd" clip-rule="evenodd" d="M6.66732 13.7272C6.66732 13.267 7.04041 12.8939 7.50065 12.8939H9.16732C9.62755 12.8939 10.0007 13.267 10.0007 13.7272C10.0007 14.1875 9.62755 14.5606 9.16732 14.5606H7.50065C7.04041 14.5606 6.66732 14.1875 6.66732 13.7272Z" fill="#667AC5"/>
<path fill-rule="evenodd" clip-rule="evenodd" d="M6.66732 11.2272C6.66732 10.767 7.04041 10.3939 7.50065 10.3939H12.5007C12.9609 10.3939 13.334 10.767 13.334 11.2272C13.334 11.6875 12.9609 12.0606 12.5007 12.0606H7.50065C7.04041 12.0606 6.66732 11.6875 6.66732 11.2272Z" fill="#667AC5"/>
<path fill-rule="evenodd" clip-rule="evenodd" d="M6.66732 8.72724C6.66732 8.26701 7.04041 7.89391 7.50065 7.89391H12.5007C12.9609 7.89391 13.334 8.26701 13.334 8.72724C13.334 9.18748 12.9609 9.56058 12.5007 9.56058H7.50065C7.04041 9.56058 6.66732 9.18748 6.66732 8.72724Z" fill="#667AC5"/>
<path fill-rule="evenodd" clip-rule="evenodd" d="M3.33398 7.06058C3.33398 5.67987 4.45327 4.56058 5.83398 4.56058H14.1673C15.548 4.56058 16.6673 5.67987 16.6673 7.06058V16.2272C16.6673 17.608 15.548 18.7272 14.1673 18.7272H5.83398C4.45327 18.7272 3.33398 17.608 3.33398 16.2272V7.06058ZM5.83398 6.22724C5.37375 6.22724 5.00065 6.60034 5.00065 7.06058V16.2272C5.00065 16.6875 5.37375 17.0606 5.83398 17.0606H14.1673C14.6276 17.0606 15.0007 16.6875 15.0007 16.2272V7.06058C15.0007 6.60034 14.6276 6.22724 14.1673 6.22724H5.83398Z" fill="#667AC5"/>
</svg>
