<svg width="24" height="24" viewBox="0 0 24 24" fill="none" xmlns="http://www.w3.org/2000/svg">
<rect x="0.5" y="0.5" width="23" height="23" rx="5.5" fill="#FEFEFF"/>
<path d="M14.916 12.0417L10.7912 16.1665L9.61271 14.988L12.559 12.0417L9.61271 9.09544L10.7912 7.91692L14.916 12.0417Z" fill="#667AC5"/>
<path fill-rule="evenodd" clip-rule="evenodd" d="M3.66602 11.9998C3.66602 7.39746 7.39698 3.6665 11.9993 3.6665C16.6017 3.6665 20.3327 7.39747 20.3327 11.9998C20.3327 16.6022 16.6017 20.3332 11.9993 20.3332C7.39698 20.3332 3.66602 16.6022 3.66602 11.9998ZM5.33268 11.9998C5.33268 8.31794 8.31745 5.33317 11.9993 5.33317C15.6812 5.33317 18.666 8.31794 18.666 11.9998C18.666 15.6817 15.6812 18.6665 11.9993 18.6665C8.31745 18.6665 5.33268 15.6817 5.33268 11.9998Z" fill="#667AC5"/>
<rect x="0.5" y="0.5" width="23" height="23" rx="5.5" stroke="#FEFEFF"/>
</svg>
