<svg width="16" height="16" viewBox="0 0 16 16" fill="none" xmlns="http://www.w3.org/2000/svg">
<path fill-rule="evenodd" clip-rule="evenodd" d="M5.54722 1.90909L6.97673 3.27864L6.98741 3.28911C7.37814 3.68063 7.53865 4.22346 7.53864 4.71259C7.53863 5.20171 7.37812 5.74452 6.98744 6.13604L6.29191 6.83309C6.45565 7.40679 6.84591 8.03954 7.38928 8.58768C7.93403 9.13719 8.56658 9.53501 9.15045 9.70112L9.84556 9.00449C10.2364 8.61278 10.7788 8.45151 11.268 8.45151C11.7571 8.45151 12.2995 8.61277 12.6904 9.00448C12.6904 9.00448 12.6904 9.00448 12.6904 9.00448L14.1161 10.4333C14.5068 10.8248 14.6673 11.3677 14.6673 11.8568C14.6673 12.3459 14.5068 12.8887 14.1161 13.2802C13.0529 14.3457 11.666 14.6668 11.0302 14.6668C10.0461 14.6668 9.15732 14.6063 8.13405 14.1275C7.13639 13.6608 6.06066 12.8206 4.61807 11.3749C3.15593 9.90954 2.32482 8.71128 1.86506 7.65836C1.39899 6.59099 1.33398 5.71617 1.33398 4.95077C1.33398 4.41534 1.40127 3.90283 1.62538 3.37884C1.84723 2.86011 2.20365 2.37473 2.71696 1.8603C3.11887 1.45752 3.67292 1.31629 4.1608 1.33514C4.64682 1.35392 5.16938 1.53403 5.54722 1.90909ZM4.10933 2.66748C3.88868 2.65896 3.7342 2.72852 3.6608 2.80208C3.22363 3.24021 2.98593 3.58837 2.85129 3.90316C2.7189 4.2127 2.66732 4.53371 2.66732 4.95077C2.66732 5.61426 2.72125 6.28722 3.08699 7.12481C3.45903 7.97685 4.17259 9.04074 5.56191 10.4331C6.97078 11.845 7.91468 12.5529 8.69903 12.9198C9.45777 13.2748 10.1133 13.3335 11.0302 13.3335C11.3682 13.3335 12.3964 13.116 13.1723 12.3384C13.2569 12.2537 13.334 12.082 13.334 11.8567C13.334 11.6315 13.2569 11.4598 13.1723 11.3751L11.7465 9.94629C11.6622 9.86172 11.4917 9.78484 11.268 9.78484C11.0443 9.78484 10.8738 9.86171 10.7894 9.94627L9.8389 10.8988C9.69061 11.0474 9.48097 11.1175 9.27312 11.088C8.23154 10.9398 7.21474 10.3055 6.44237 9.52637C5.67025 8.74749 5.05034 7.73106 4.90504 6.71179C4.87548 6.50437 4.94514 6.29513 5.09312 6.14682L6.04361 5.19426C6.12818 5.10951 6.2053 4.93787 6.20531 4.71257C6.20531 4.49066 6.1305 4.32086 6.04746 4.23485L4.62005 2.86731L4.60936 2.85683C4.51234 2.75961 4.32929 2.67598 4.10933 2.66748Z" fill="#667AC5"/>
</svg>
