<svg width="25" height="24" viewBox="0 0 25 24" fill="none" xmlns="http://www.w3.org/2000/svg">
<path fill-rule="evenodd" clip-rule="evenodd" d="M11.8861 3.21065C12.2472 2.92978 12.7529 2.92978 13.114 3.21065L22.114 10.2106C22.5499 10.5497 22.6285 11.178 22.2894 11.6139C21.9503 12.0499 21.3221 12.1284 20.8861 11.7894L12.5 5.26686L4.11399 11.7894C3.67804 12.1284 3.04976 12.0499 2.71069 11.6139C2.37162 11.178 2.45016 10.5497 2.88611 10.2106L11.8861 3.21065Z" fill="#667AC5"/>
<path fill-rule="evenodd" clip-rule="evenodd" d="M5.50005 8.5C6.05233 8.5 6.50005 8.94772 6.50005 9.5V20H10.5V17C10.5 16.4477 10.9478 16 11.5 16H13.5C14.0523 16 14.5 16.4477 14.5 17V20H18.5V10C18.5 9.44772 18.9478 9 19.5 9C20.0523 9 20.5 9.44772 20.5 10V21C20.5 21.5523 20.0523 22 19.5 22H5.50005C4.94776 22 4.50005 21.5523 4.50005 21V9.5C4.50005 8.94772 4.94776 8.5 5.50005 8.5Z" fill="#667AC5"/>
</svg>
