<svg width="24" height="25" viewBox="0 0 24 25" fill="none" xmlns="http://www.w3.org/2000/svg">
<path fill-rule="evenodd" clip-rule="evenodd" d="M12 4.39392C10.8954 4.39392 10 5.28935 10 6.39392C10 7.49849 10.8954 8.39392 12 8.39392C13.1046 8.39392 14 7.49849 14 6.39392C14 5.28935 13.1046 4.39392 12 4.39392ZM8 6.39392C8 4.18478 9.79086 2.39392 12 2.39392C14.2091 2.39392 16 4.18478 16 6.39392C16 8.60306 14.2091 10.3939 12 10.3939C9.79086 10.3939 8 8.60306 8 6.39392Z" fill="#43476D"/>
<path fill-rule="evenodd" clip-rule="evenodd" d="M5.07626 17.4013C5.51644 18.3632 6.41701 19.0885 7.63462 19.5958C8.98222 20.1573 10.5944 20.3939 12 20.3939C13.4056 20.3939 15.0178 20.1573 16.3654 19.5958C17.583 19.0885 18.4836 18.3632 18.9237 17.4013C18.4696 16.484 17.4123 15.7393 16.016 15.2023C14.508 14.6223 12.8799 14.3939 12 14.3939C11.1201 14.3939 9.49198 14.6223 7.98398 15.2023C6.58772 15.7393 5.53038 16.484 5.07626 17.4013ZM7.26602 13.3356C9.00802 12.6656 10.8799 12.3939 12 12.3939C13.1201 12.3939 14.992 12.6656 16.734 13.3356C18.4342 13.9895 20.302 15.1375 20.9487 17.0777C21.0171 17.283 21.0171 17.5049 20.9487 17.7101C20.3235 19.5857 18.784 20.7547 17.1346 21.442C15.4822 22.1305 13.5944 22.3939 12 22.3939C10.4056 22.3939 8.51778 22.1305 6.86538 21.442C5.21599 20.7547 3.67651 19.5857 3.05132 17.7101C2.98289 17.5049 2.98289 17.283 3.05132 17.0777C3.69805 15.1375 5.56582 13.9895 7.26602 13.3356Z" fill="#43476D"/>
</svg>
