<svg width="122" height="21" viewBox="0 0 122 21" fill="none" xmlns="http://www.w3.org/2000/svg">
<path d="M0.68 20.197V3.39702H9.272C11.48 3.39702 13.128 3.80502 14.216 4.62102C15.304 5.42102 15.848 6.47702 15.848 7.78902C15.848 8.65302 15.616 9.41302 15.152 10.069C14.704 10.709 14.064 11.221 13.232 11.605C12.416 11.973 11.44 12.157 10.304 12.157L10.784 11.005C11.968 11.005 13 11.189 13.88 11.557C14.76 11.909 15.44 12.429 15.92 13.117C16.416 13.789 16.664 14.613 16.664 15.589C16.664 17.045 16.072 18.181 14.888 18.997C13.72 19.797 12.008 20.197 9.752 20.197H0.68ZM5.384 16.765H9.368C10.184 16.765 10.8 16.629 11.216 16.357C11.648 16.069 11.864 15.637 11.864 15.061C11.864 14.485 11.648 14.061 11.216 13.789C10.8 13.501 10.184 13.357 9.368 13.357H5.048V10.069H8.648C9.448 10.069 10.048 9.93302 10.448 9.66102C10.848 9.38902 11.048 8.98102 11.048 8.43702C11.048 7.89302 10.848 7.49302 10.448 7.23702C10.048 6.96502 9.448 6.82902 8.648 6.82902H5.384V16.765ZM24.3813 20.413C23.3253 20.413 22.3733 20.205 21.5253 19.789C20.6933 19.373 20.0373 18.725 19.5573 17.845C19.0933 16.949 18.8613 15.821 18.8613 14.461V7.18902H23.4213V13.717C23.4213 14.725 23.6053 15.445 23.9733 15.877C24.3573 16.309 24.8933 16.525 25.5813 16.525C26.0293 16.525 26.4373 16.421 26.8053 16.213C27.1733 16.005 27.4693 15.677 27.6933 15.229C27.9173 14.765 28.0293 14.173 28.0293 13.453V7.18902H32.5893V20.197H28.2453V16.525L29.0853 17.557C28.6373 18.517 27.9893 19.237 27.1413 19.717C26.2933 20.181 25.3733 20.413 24.3813 20.413ZM35.5265 20.197V7.18902H40.0865V20.197H35.5265ZM37.8065 5.74902C36.9745 5.74902 36.3025 5.51702 35.7905 5.05302C35.2785 4.58902 35.0225 4.01302 35.0225 3.32502C35.0225 2.63702 35.2785 2.06102 35.7905 1.59702C36.3025 1.13302 36.9745 0.901021 37.8065 0.901021C38.6385 0.901021 39.3105 1.12502 39.8225 1.57302C40.3345 2.00502 40.5905 2.56502 40.5905 3.25302C40.5905 3.97302 40.3345 4.57302 39.8225 5.05302C39.3265 5.51702 38.6545 5.74902 37.8065 5.74902ZM43.0499 20.197V2.38902H47.6099V20.197H43.0499ZM56.2374 20.413C55.0534 20.413 53.9734 20.141 52.9974 19.597C52.0374 19.037 51.2694 18.261 50.6934 17.269C50.1174 16.261 49.8294 15.061 49.8294 13.669C49.8294 12.293 50.1174 11.109 50.6934 10.117C51.2694 9.10902 52.0374 8.33302 52.9974 7.78902C53.9734 7.24502 55.0534 6.97302 56.2374 6.97302C57.3574 6.97302 58.3014 7.21302 59.0694 7.69302C59.8534 8.17302 60.4454 8.90902 60.8454 9.90102C61.2454 10.893 61.4454 12.149 61.4454 13.669C61.4454 15.221 61.2534 16.493 60.8694 17.485C60.4854 18.477 59.9094 19.213 59.1414 19.693C58.3734 20.173 57.4054 20.413 56.2374 20.413ZM57.1974 16.789C57.7094 16.789 58.1654 16.669 58.5654 16.429C58.9814 16.189 59.3094 15.837 59.5494 15.373C59.7894 14.893 59.9094 14.325 59.9094 13.669C59.9094 13.013 59.7894 12.461 59.5494 12.013C59.3094 11.549 58.9814 11.197 58.5654 10.957C58.1654 10.717 57.7094 10.597 57.1974 10.597C56.6694 10.597 56.1974 10.717 55.7814 10.957C55.3814 11.197 55.0614 11.549 54.8214 12.013C54.5814 12.461 54.4614 13.013 54.4614 13.669C54.4614 14.325 54.5814 14.893 54.8214 15.373C55.0614 15.837 55.3814 16.189 55.7814 16.429C56.1974 16.669 56.6694 16.789 57.1974 16.789ZM60.0534 20.197V17.965L60.0774 13.669L59.8374 9.37302V2.38902H64.3974V20.197H60.0534Z" fill="#43476D"/>
<path d="M67.5472 20.197V3.39702H72.2992V16.429H80.3152V20.197H67.5472ZM81.9796 20.197V7.18902H86.5396V20.197H81.9796ZM84.2596 5.74902C83.4276 5.74902 82.7556 5.51702 82.2436 5.05302C81.7316 4.58902 81.4756 4.01302 81.4756 3.32502C81.4756 2.63702 81.7316 2.06102 82.2436 1.59702C82.7556 1.13302 83.4276 0.901021 84.2596 0.901021C85.0916 0.901021 85.7636 1.12502 86.2756 1.57302C86.7876 2.00502 87.0436 2.56502 87.0436 3.25302C87.0436 3.97302 86.7876 4.57302 86.2756 5.05302C85.7796 5.51702 85.1076 5.74902 84.2596 5.74902ZM97.9751 6.97302C98.9831 6.97302 99.8951 7.18102 100.711 7.59702C101.527 7.99702 102.167 8.62102 102.631 9.46902C103.111 10.317 103.351 11.413 103.351 12.757V20.197H98.7911V13.501C98.7911 12.573 98.5991 11.901 98.2151 11.485C97.8471 11.053 97.3271 10.837 96.6551 10.837C96.1751 10.837 95.7351 10.949 95.3351 11.173C94.9351 11.381 94.6231 11.709 94.3991 12.157C94.1751 12.605 94.0631 13.189 94.0631 13.909V20.197H89.5031V7.18902H93.8471V10.885L93.0071 9.80502C93.5031 8.86102 94.1831 8.15702 95.0471 7.69302C95.9111 7.21302 96.8871 6.97302 97.9751 6.97302ZM110.006 17.797L110.126 12.349L115.43 7.18902H120.83L114.95 13.261L112.622 15.133L110.006 17.797ZM106.214 20.197V2.38902H110.774V20.197H106.214ZM115.766 20.197L111.782 15.205L114.614 11.701L121.286 20.197H115.766Z" fill="#667AC5"/>
</svg>
