<svg width="20" height="21" viewBox="0 0 20 21" fill="none" xmlns="http://www.w3.org/2000/svg">
<path fill-rule="evenodd" clip-rule="evenodd" d="M2.5 7.89392C2.5 6.05297 3.99238 4.56059 5.83333 4.56059H14.1667C16.0076 4.56059 17.5 6.05297 17.5 7.89392V14.5606C17.5 16.4015 16.0076 17.8939 14.1667 17.8939H5.83333C3.99238 17.8939 2.5 16.4015 2.5 14.5606V7.89392ZM5.83333 6.22725C4.91286 6.22725 4.16667 6.97345 4.16667 7.89392V14.5606C4.16667 15.4811 4.91286 16.2273 5.83333 16.2273H14.1667C15.0871 16.2273 15.8333 15.4811 15.8333 14.5606V7.89392C15.8333 6.97345 15.0871 6.22725 14.1667 6.22725H5.83333Z" fill="#43476D"/>
<path fill-rule="evenodd" clip-rule="evenodd" d="M6.66667 2.89392C7.1269 2.89392 7.5 3.26702 7.5 3.72725V5.39392C7.5 5.85416 7.1269 6.22725 6.66667 6.22725C6.20643 6.22725 5.83333 5.85416 5.83333 5.39392V3.72725C5.83333 3.26702 6.20643 2.89392 6.66667 2.89392Z" fill="#43476D"/>
<path fill-rule="evenodd" clip-rule="evenodd" d="M13.3333 2.89392C13.7936 2.89392 14.1667 3.26702 14.1667 3.72725V5.39392C14.1667 5.85416 13.7936 6.22725 13.3333 6.22725C12.8731 6.22725 12.5 5.85416 12.5 5.39392V3.72725C12.5 3.26702 12.8731 2.89392 13.3333 2.89392Z" fill="#43476D"/>
<path d="M7.5 8.72725C7.5 9.18749 7.1269 9.56059 6.66667 9.56059C6.20643 9.56059 5.83333 9.18749 5.83333 8.72725C5.83333 8.26702 6.20643 7.89392 6.66667 7.89392C7.1269 7.89392 7.5 8.26702 7.5 8.72725Z" fill="#43476D"/>
<path d="M10.8333 8.72725C10.8333 9.18749 10.4602 9.56059 10 9.56059C9.53976 9.56059 9.16667 9.18749 9.16667 8.72725C9.16667 8.26702 9.53976 7.89392 10 7.89392C10.4602 7.89392 10.8333 8.26702 10.8333 8.72725Z" fill="#43476D"/>
<path d="M14.1667 8.72725C14.1667 9.18749 13.7936 9.56059 13.3333 9.56059C12.8731 9.56059 12.5 9.18749 12.5 8.72725C12.5 8.26702 12.8731 7.89392 13.3333 7.89392C13.7936 7.89392 14.1667 8.26702 14.1667 8.72725Z" fill="#43476D"/>
<path d="M7.5 12.0606C7.5 12.5208 7.1269 12.8939 6.66667 12.8939C6.20643 12.8939 5.83333 12.5208 5.83333 12.0606C5.83333 11.6004 6.20643 11.2273 6.66667 11.2273C7.1269 11.2273 7.5 11.6004 7.5 12.0606Z" fill="#43476D"/>
</svg>
