<svg width="20" height="21" viewBox="0 0 20 21" fill="none" xmlns="http://www.w3.org/2000/svg">
<path fill-rule="evenodd" clip-rule="evenodd" d="M8.33268 3.72727C5.57126 3.72727 3.33268 5.96585 3.33268 8.72727C3.33268 11.4887 5.57126 13.7273 8.33268 13.7273C11.0941 13.7273 13.3327 11.4887 13.3327 8.72727C13.3327 5.96585 11.0941 3.72727 8.33268 3.72727ZM1.66602 8.72727C1.66602 5.04538 4.65078 2.06061 8.33268 2.06061C12.0146 2.06061 14.9993 5.04538 14.9993 8.72727C14.9993 12.4092 12.0146 15.3939 8.33268 15.3939C4.65078 15.3939 1.66602 12.4092 1.66602 8.72727Z" fill="black"/>
<path fill-rule="evenodd" clip-rule="evenodd" d="M11.9101 12.3047C12.2355 11.9792 12.7632 11.9792 13.0886 12.3047L18.0886 17.3047C18.414 17.6301 18.414 18.1578 18.0886 18.4832C17.7632 18.8086 17.2355 18.8086 16.9101 18.4832L11.9101 13.4832C11.5847 13.1578 11.5847 12.6301 11.9101 12.3047Z" fill="black"/>
</svg>
